<svg xmlns="http://www.w3.org/2000/svg">
<!-- Lucide 0.460.0 icons (ISC licence, https://lucide.dev), one symbol per icon -->
<symbol id="i-activity" viewBox="0 0 24 24" fill="none" stroke="currentColor" stroke-width="2" stroke-linecap="round" stroke-linejoin="round"><path d="M22 12h-2.48a2 2 0 0 0-1.93 1.46l-2.35 8.36a.25.25 0 0 1-.48 0L9.24 2.18a.25.25 0 0 0-.48 0l-2.35 8.36A2 2 0 0 1 4.49 12H2" /></symbol>
<symbol id="i-arrow-up-down" viewBox="0 0 24 24" fill="none" stroke="currentColor" stroke-width="2" stroke-linecap="round" stroke-linejoin="round"><path d="m21 16-4 4-4-4" /> <path d="M17 20V4" /> <path d="m3 8 4-4 4 4" /> <path d="M7 4v16" /></symbol>
<symbol id="i-bell" viewBox="0 0 24 24" fill="none" stroke="currentColor" stroke-width="2" stroke-linecap="round" stroke-linejoin="round"><path d="M6 8a6 6 0 0 1 12 0c0 7 3 9 3 9H3s3-2 3-9" /> <path d="M10.3 21a1.94 1.94 0 0 0 3.4 0" /></symbol>
<symbol id="i-biohazard" viewBox="0 0 24 24" fill="none" stroke="currentColor" stroke-width="2" stroke-linecap="round" stroke-linejoin="round"><circle cx="12" cy="11.9" r="2" /> <path d="M6.7 3.4c-.9 2.5 0 5.2 2.2 6.7C6.5 9 3.7 9.6 2 11.6" /> <path d="m8.9 10.1 1.4.8" /> <path d="M17.3 3.4c.9 2.5 0 5.2-2.2 6.7 2.4-1.2 5.2-.6 6.9 1.5" /> <path d="m15.1 10.1-1.4.8" /> <path d="M16.7 20.8c-2.6-.4-4.6-2.6-4.7-5.3-.2 2.6-2.1 4.8-4.7 5.2" /> <path d="M12 13.9v1.6" /> <path d="M13.5 5.4c-1-.2-2-.2-3 0" /> <path d="M17 16.4c.7-.7 1.2-1.6 1.5-2.5" /> <path d="M5.5 13.9c.3.9.8 1.8 1.5 2.5" /></symbol>
<symbol id="i-bot" viewBox="0 0 24 24" fill="none" stroke="currentColor" stroke-width="2" stroke-linecap="round" stroke-linejoin="round"><path d="M12 8V4H8" /> <rect width="16" height="12" x="4" y="8" rx="2" /> <path d="M2 14h2" /> <path d="M20 14h2" /> <path d="M15 13v2" /> <path d="M9 13v2" /></symbol>
<symbol id="i-bug" viewBox="0 0 24 24" fill="none" stroke="currentColor" stroke-width="2" stroke-linecap="round" stroke-linejoin="round"><path d="m8 2 1.88 1.88" /> <path d="M14.12 3.88 16 2" /> <path d="M9 7.13v-1a3.003 3.003 0 1 1 6 0v1" /> <path d="M12 20c-3.3 0-6-2.7-6-6v-3a4 4 0 0 1 4-4h4a4 4 0 0 1 4 4v3c0 3.3-2.7 6-6 6" /> <path d="M12 20v-9" /> <path d="M6.53 9C4.6 8.8 3 7.1 3 5" /> <path d="M6 13H2" /> <path d="M3 21c0-2.1 1.7-3.9 3.8-4" /> <path d="M20.97 5c0 2.1-1.6 3.8-3.5 4" /> <path d="M22 13h-4" /> <path d="M17.2 17c2.1.1 3.8 1.9 3.8 4" /></symbol>
<symbol id="i-check" viewBox="0 0 24 24" fill="none" stroke="currentColor" stroke-width="2" stroke-linecap="round" stroke-linejoin="round"><path d="M20 6 9 17l-5-5" /></symbol>
<symbol id="i-chevron-down" viewBox="0 0 24 24" fill="none" stroke="currentColor" stroke-width="2" stroke-linecap="round" stroke-linejoin="round"><path d="m6 9 6 6 6-6" /></symbol>
<symbol id="i-chevron-right" viewBox="0 0 24 24" fill="none" stroke="currentColor" stroke-width="2" stroke-linecap="round" stroke-linejoin="round"><path d="m9 18 6-6-6-6" /></symbol>
<symbol id="i-chevron-up" viewBox="0 0 24 24" fill="none" stroke="currentColor" stroke-width="2" stroke-linecap="round" stroke-linejoin="round"><path d="m18 15-6-6-6 6" /></symbol>
<symbol id="i-circle-help" viewBox="0 0 24 24" fill="none" stroke="currentColor" stroke-width="2" stroke-linecap="round" stroke-linejoin="round"><circle cx="12" cy="12" r="10" /> <path d="M9.09 9a3 3 0 0 1 5.83 1c0 2-3 3-3 3" /> <path d="M12 17h.01" /></symbol>
<symbol id="i-clock" viewBox="0 0 24 24" fill="none" stroke="currentColor" stroke-width="2" stroke-linecap="round" stroke-linejoin="round"><circle cx="12" cy="12" r="10" /> <polyline points="12 6 12 12 16 14" /></symbol>
<symbol id="i-cloud" viewBox="0 0 24 24" fill="none" stroke="currentColor" stroke-width="2" stroke-linecap="round" stroke-linejoin="round"><path d="M17.5 19H9a7 7 0 1 1 6.71-9h1.79a4.5 4.5 0 1 1 0 9Z" /></symbol>
<symbol id="i-command" viewBox="0 0 24 24" fill="none" stroke="currentColor" stroke-width="2" stroke-linecap="round" stroke-linejoin="round"><path d="M15 6v12a3 3 0 1 0 3-3H6a3 3 0 1 0 3 3V6a3 3 0 1 0-3 3h12a3 3 0 1 0-3-3" /></symbol>
<symbol id="i-copy" viewBox="0 0 24 24" fill="none" stroke="currentColor" stroke-width="2" stroke-linecap="round" stroke-linejoin="round"><rect width="14" height="14" x="8" y="8" rx="2" ry="2" /> <path d="M4 16c-1.1 0-2-.9-2-2V4c0-1.1.9-2 2-2h10c1.1 0 2 .9 2 2" /></symbol>
<symbol id="i-cpu" viewBox="0 0 24 24" fill="none" stroke="currentColor" stroke-width="2" stroke-linecap="round" stroke-linejoin="round"><rect width="16" height="16" x="4" y="4" rx="2" /> <rect width="6" height="6" x="9" y="9" rx="1" /> <path d="M15 2v2" /> <path d="M15 20v2" /> <path d="M2 15h2" /> <path d="M2 9h2" /> <path d="M20 15h2" /> <path d="M20 9h2" /> <path d="M9 2v2" /> <path d="M9 20v2" /></symbol>
<symbol id="i-crosshair" viewBox="0 0 24 24" fill="none" stroke="currentColor" stroke-width="2" stroke-linecap="round" stroke-linejoin="round"><circle cx="12" cy="12" r="10" /> <line x1="22" x2="18" y1="12" y2="12" /> <line x1="6" x2="2" y1="12" y2="12" /> <line x1="12" x2="12" y1="6" y2="2" /> <line x1="12" x2="12" y1="22" y2="18" /></symbol>
<symbol id="i-database-zap" viewBox="0 0 24 24" fill="none" stroke="currentColor" stroke-width="2" stroke-linecap="round" stroke-linejoin="round"><ellipse cx="12" cy="5" rx="9" ry="3" /> <path d="M3 5V19A9 3 0 0 0 15 21.84" /> <path d="M21 5V8" /> <path d="M21 12L18 17H22L19 22" /> <path d="M3 12A9 3 0 0 0 14.59 14.87" /></symbol>
<symbol id="i-download" viewBox="0 0 24 24" fill="none" stroke="currentColor" stroke-width="2" stroke-linecap="round" stroke-linejoin="round"><path d="M21 15v4a2 2 0 0 1-2 2H5a2 2 0 0 1-2-2v-4" /> <polyline points="7 10 12 15 17 10" /> <line x1="12" x2="12" y1="15" y2="3" /></symbol>
<symbol id="i-external-link" viewBox="0 0 24 24" fill="none" stroke="currentColor" stroke-width="2" stroke-linecap="round" stroke-linejoin="round"><path d="M15 3h6v6" /> <path d="M10 14 21 3" /> <path d="M18 13v6a2 2 0 0 1-2 2H5a2 2 0 0 1-2-2V8a2 2 0 0 1 2-2h6" /></symbol>
<symbol id="i-filter" viewBox="0 0 24 24" fill="none" stroke="currentColor" stroke-width="2" stroke-linecap="round" stroke-linejoin="round"><polygon points="22 3 2 3 10 12.46 10 19 14 21 14 12.46 22 3" /></symbol>
<symbol id="i-fingerprint" viewBox="0 0 24 24" fill="none" stroke="currentColor" stroke-width="2" stroke-linecap="round" stroke-linejoin="round"><path d="M12 10a2 2 0 0 0-2 2c0 1.02-.1 2.51-.26 4" /> <path d="M14 13.12c0 2.38 0 6.38-1 8.88" /> <path d="M17.29 21.02c.12-.6.43-2.3.5-3.02" /> <path d="M2 12a10 10 0 0 1 18-6" /> <path d="M2 16h.01" /> <path d="M21.8 16c.2-2 .131-5.354 0-6" /> <path d="M5 19.5C5.5 18 6 15 6 12a6 6 0 0 1 .34-2" /> <path d="M8.65 22c.21-.66.45-1.32.57-2" /> <path d="M9 6.8a6 6 0 0 1 9 5.2v2" /></symbol>
<symbol id="i-flag" viewBox="0 0 24 24" fill="none" stroke="currentColor" stroke-width="2" stroke-linecap="round" stroke-linejoin="round"><path d="M4 15s1-1 4-1 5 2 8 2 4-1 4-1V3s-1 1-4 1-5-2-8-2-4 1-4 1z" /> <line x1="4" x2="4" y1="22" y2="15" /></symbol>
<symbol id="i-flame" viewBox="0 0 24 24" fill="none" stroke="currentColor" stroke-width="2" stroke-linecap="round" stroke-linejoin="round"><path d="M8.5 14.5A2.5 2.5 0 0 0 11 12c0-1.38-.5-2-1-3-1.072-2.143-.224-4.054 2-6 .5 2.5 2 4.9 4 6.5 2 1.6 3 3.5 3 5.5a7 7 0 1 1-14 0c0-1.153.433-2.294 1-3a2.5 2.5 0 0 0 2.5 2.5z" /></symbol>
<symbol id="i-globe" viewBox="0 0 24 24" fill="none" stroke="currentColor" stroke-width="2" stroke-linecap="round" stroke-linejoin="round"><circle cx="12" cy="12" r="10" /> <path d="M12 2a14.5 14.5 0 0 0 0 20 14.5 14.5 0 0 0 0-20" /> <path d="M2 12h20" /></symbol>
<symbol id="i-grip-horizontal" viewBox="0 0 24 24" fill="none" stroke="currentColor" stroke-width="2" stroke-linecap="round" stroke-linejoin="round"><circle cx="12" cy="9" r="1" /> <circle cx="19" cy="9" r="1" /> <circle cx="5" cy="9" r="1" /> <circle cx="12" cy="15" r="1" /> <circle cx="19" cy="15" r="1" /> <circle cx="5" cy="15" r="1" /></symbol>
<symbol id="i-info" viewBox="0 0 24 24" fill="none" stroke="currentColor" stroke-width="2" stroke-linecap="round" stroke-linejoin="round"><circle cx="12" cy="12" r="10" /> <path d="M12 16v-4" /> <path d="M12 8h.01" /></symbol>
<symbol id="i-keyboard" viewBox="0 0 24 24" fill="none" stroke="currentColor" stroke-width="2" stroke-linecap="round" stroke-linejoin="round"><path d="M10 8h.01" /> <path d="M12 12h.01" /> <path d="M14 8h.01" /> <path d="M16 12h.01" /> <path d="M18 8h.01" /> <path d="M6 8h.01" /> <path d="M7 16h10" /> <path d="M8 12h.01" /> <rect width="20" height="16" x="2" y="4" rx="2" /></symbol>
<symbol id="i-landmark" viewBox="0 0 24 24" fill="none" stroke="currentColor" stroke-width="2" stroke-linecap="round" stroke-linejoin="round"><line x1="3" x2="21" y1="22" y2="22" /> <line x1="6" x2="6" y1="18" y2="11" /> <line x1="10" x2="10" y1="18" y2="11" /> <line x1="14" x2="14" y1="18" y2="11" /> <line x1="18" x2="18" y1="18" y2="11" /> <polygon points="12 2 20 7 4 7" /></symbol>
<symbol id="i-layers" viewBox="0 0 24 24" fill="none" stroke="currentColor" stroke-width="2" stroke-linecap="round" stroke-linejoin="round"><path d="m12.83 2.18a2 2 0 0 0-1.66 0L2.6 6.08a1 1 0 0 0 0 1.83l8.58 3.91a2 2 0 0 0 1.66 0l8.58-3.9a1 1 0 0 0 0-1.83Z" /> <path d="m22 17.65-9.17 4.16a2 2 0 0 1-1.66 0L2 17.65" /> <path d="m22 12.65-9.17 4.16a2 2 0 0 1-1.66 0L2 12.65" /></symbol>
<symbol id="i-locate-fixed" viewBox="0 0 24 24" fill="none" stroke="currentColor" stroke-width="2" stroke-linecap="round" stroke-linejoin="round"><line x1="2" x2="5" y1="12" y2="12" /> <line x1="19" x2="22" y1="12" y2="12" /> <line x1="12" x2="12" y1="2" y2="5" /> <line x1="12" x2="12" y1="19" y2="22" /> <circle cx="12" cy="12" r="7" /> <circle cx="12" cy="12" r="3" /></symbol>
<symbol id="i-lock" viewBox="0 0 24 24" fill="none" stroke="currentColor" stroke-width="2" stroke-linecap="round" stroke-linejoin="round"><rect width="18" height="11" x="3" y="11" rx="2" ry="2" /> <path d="M7 11V7a5 5 0 0 1 10 0v4" /></symbol>
<symbol id="i-map" viewBox="0 0 24 24" fill="none" stroke="currentColor" stroke-width="2" stroke-linecap="round" stroke-linejoin="round"><path d="M14.106 5.553a2 2 0 0 0 1.788 0l3.659-1.83A1 1 0 0 1 21 4.619v12.764a1 1 0 0 1-.553.894l-4.553 2.277a2 2 0 0 1-1.788 0l-4.212-2.106a2 2 0 0 0-1.788 0l-3.659 1.83A1 1 0 0 1 3 19.381V6.618a1 1 0 0 1 .553-.894l4.553-2.277a2 2 0 0 1 1.788 0z" /> <path d="M15 5.764v15" /> <path d="M9 3.236v15" /></symbol>
<symbol id="i-maximize-2" viewBox="0 0 24 24" fill="none" stroke="currentColor" stroke-width="2" stroke-linecap="round" stroke-linejoin="round"><polyline points="15 3 21 3 21 9" /> <polyline points="9 21 3 21 3 15" /> <line x1="21" x2="14" y1="3" y2="10" /> <line x1="3" x2="10" y1="21" y2="14" /></symbol>
<symbol id="i-menu" viewBox="0 0 24 24" fill="none" stroke="currentColor" stroke-width="2" stroke-linecap="round" stroke-linejoin="round"><line x1="4" x2="20" y1="12" y2="12" /> <line x1="4" x2="20" y1="6" y2="6" /> <line x1="4" x2="20" y1="18" y2="18" /></symbol>
<symbol id="i-minimize-2" viewBox="0 0 24 24" fill="none" stroke="currentColor" stroke-width="2" stroke-linecap="round" stroke-linejoin="round"><polyline points="4 14 10 14 10 20" /> <polyline points="20 10 14 10 14 4" /> <line x1="14" x2="21" y1="10" y2="3" /> <line x1="3" x2="10" y1="21" y2="14" /></symbol>
<symbol id="i-network" viewBox="0 0 24 24" fill="none" stroke="currentColor" stroke-width="2" stroke-linecap="round" stroke-linejoin="round"><rect x="16" y="16" width="6" height="6" rx="1" /> <rect x="2" y="16" width="6" height="6" rx="1" /> <rect x="9" y="2" width="6" height="6" rx="1" /> <path d="M5 16v-3a1 1 0 0 1 1-1h12a1 1 0 0 1 1 1v3" /> <path d="M12 12V8" /></symbol>
<symbol id="i-newspaper" viewBox="0 0 24 24" fill="none" stroke="currentColor" stroke-width="2" stroke-linecap="round" stroke-linejoin="round"><path d="M4 22h16a2 2 0 0 0 2-2V4a2 2 0 0 0-2-2H8a2 2 0 0 0-2 2v16a2 2 0 0 1-2 2Zm0 0a2 2 0 0 1-2-2v-9c0-1.1.9-2 2-2h2" /> <path d="M18 14h-8" /> <path d="M15 18h-5" /> <path d="M10 6h8v4h-8V6Z" /></symbol>
<symbol id="i-orbit" viewBox="0 0 24 24" fill="none" stroke="currentColor" stroke-width="2" stroke-linecap="round" stroke-linejoin="round"><circle cx="12" cy="12" r="3" /> <circle cx="19" cy="5" r="2" /> <circle cx="5" cy="19" r="2" /> <path d="M10.4 21.9a10 10 0 0 0 9.941-15.416" /> <path d="M13.5 2.1a10 10 0 0 0-9.841 15.416" /></symbol>
<symbol id="i-panel-left" viewBox="0 0 24 24" fill="none" stroke="currentColor" stroke-width="2" stroke-linecap="round" stroke-linejoin="round"><rect width="18" height="18" x="3" y="3" rx="2" /> <path d="M9 3v18" /></symbol>
<symbol id="i-panel-right" viewBox="0 0 24 24" fill="none" stroke="currentColor" stroke-width="2" stroke-linecap="round" stroke-linejoin="round"><rect width="18" height="18" x="3" y="3" rx="2" /> <path d="M15 3v18" /></symbol>
<symbol id="i-pause" viewBox="0 0 24 24" fill="none" stroke="currentColor" stroke-width="2" stroke-linecap="round" stroke-linejoin="round"><rect x="14" y="4" width="4" height="16" rx="1" /> <rect x="6" y="4" width="4" height="16" rx="1" /></symbol>
<symbol id="i-play" viewBox="0 0 24 24" fill="none" stroke="currentColor" stroke-width="2" stroke-linecap="round" stroke-linejoin="round"><polygon points="6 3 20 12 6 21 6 3" /></symbol>
<symbol id="i-radar" viewBox="0 0 24 24" fill="none" stroke="currentColor" stroke-width="2" stroke-linecap="round" stroke-linejoin="round"><path d="M19.07 4.93A10 10 0 0 0 6.99 3.34" /> <path d="M4 6h.01" /> <path d="M2.29 9.62A10 10 0 1 0 21.31 8.35" /> <path d="M16.24 7.76A6 6 0 1 0 8.23 16.67" /> <path d="M12 18h.01" /> <path d="M17.99 11.66A6 6 0 0 1 15.77 16.67" /> <circle cx="12" cy="12" r="2" /> <path d="m13.41 10.59 5.66-5.66" /></symbol>
<symbol id="i-radio-tower" viewBox="0 0 24 24" fill="none" stroke="currentColor" stroke-width="2" stroke-linecap="round" stroke-linejoin="round"><path d="M4.9 16.1C1 12.2 1 5.8 4.9 1.9" /> <path d="M7.8 4.7a6.14 6.14 0 0 0-.8 7.5" /> <circle cx="12" cy="9" r="2" /> <path d="M16.2 4.8c2 2 2.26 5.11.8 7.47" /> <path d="M19.1 1.9a9.96 9.96 0 0 1 0 14.1" /> <path d="M9.5 18h5" /> <path d="m8 22 4-11 4 11" /></symbol>
<symbol id="i-refresh-cw" viewBox="0 0 24 24" fill="none" stroke="currentColor" stroke-width="2" stroke-linecap="round" stroke-linejoin="round"><path d="M3 12a9 9 0 0 1 9-9 9.75 9.75 0 0 1 6.74 2.74L21 8" /> <path d="M21 3v5h-5" /> <path d="M21 12a9 9 0 0 1-9 9 9.75 9.75 0 0 1-6.74-2.74L3 16" /> <path d="M8 16H3v5" /></symbol>
<symbol id="i-rotate-ccw" viewBox="0 0 24 24" fill="none" stroke="currentColor" stroke-width="2" stroke-linecap="round" stroke-linejoin="round"><path d="M3 12a9 9 0 1 0 9-9 9.75 9.75 0 0 0-6.74 2.74L3 8" /> <path d="M3 3v5h5" /></symbol>
<symbol id="i-rows-3" viewBox="0 0 24 24" fill="none" stroke="currentColor" stroke-width="2" stroke-linecap="round" stroke-linejoin="round"><rect width="18" height="18" x="3" y="3" rx="2" /> <path d="M21 9H3" /> <path d="M21 15H3" /></symbol>
<symbol id="i-satellite-dish" viewBox="0 0 24 24" fill="none" stroke="currentColor" stroke-width="2" stroke-linecap="round" stroke-linejoin="round"><path d="M4 10a7.31 7.31 0 0 0 10 10Z" /> <path d="m9 15 3-3" /> <path d="M17 13a6 6 0 0 0-6-6" /> <path d="M21 13A10 10 0 0 0 11 3" /></symbol>
<symbol id="i-scale" viewBox="0 0 24 24" fill="none" stroke="currentColor" stroke-width="2" stroke-linecap="round" stroke-linejoin="round"><path d="m16 16 3-8 3 8c-.87.65-1.92 1-3 1s-2.13-.35-3-1Z" /> <path d="m2 16 3-8 3 8c-.87.65-1.92 1-3 1s-2.13-.35-3-1Z" /> <path d="M7 21h10" /> <path d="M12 3v18" /> <path d="M3 7h2c2 0 5-1 7-2 2 1 5 2 7 2h2" /></symbol>
<symbol id="i-search" viewBox="0 0 24 24" fill="none" stroke="currentColor" stroke-width="2" stroke-linecap="round" stroke-linejoin="round"><circle cx="11" cy="11" r="8" /> <path d="m21 21-4.3-4.3" /></symbol>
<symbol id="i-server" viewBox="0 0 24 24" fill="none" stroke="currentColor" stroke-width="2" stroke-linecap="round" stroke-linejoin="round"><rect width="20" height="8" x="2" y="2" rx="2" ry="2" /> <rect width="20" height="8" x="2" y="14" rx="2" ry="2" /> <line x1="6" x2="6.01" y1="6" y2="6" /> <line x1="6" x2="6.01" y1="18" y2="18" /></symbol>
<symbol id="i-shield-check" viewBox="0 0 24 24" fill="none" stroke="currentColor" stroke-width="2" stroke-linecap="round" stroke-linejoin="round"><path d="M20 13c0 5-3.5 7.5-7.66 8.95a1 1 0 0 1-.67-.01C7.5 20.5 4 18 4 13V6a1 1 0 0 1 1-1c2 0 4.5-1.2 6.24-2.72a1.17 1.17 0 0 1 1.52 0C14.51 3.81 17 5 19 5a1 1 0 0 1 1 1z" /> <path d="m9 12 2 2 4-4" /></symbol>
<symbol id="i-skull" viewBox="0 0 24 24" fill="none" stroke="currentColor" stroke-width="2" stroke-linecap="round" stroke-linejoin="round"><path d="m12.5 17-.5-1-.5 1h1z" /> <path d="M15 22a1 1 0 0 0 1-1v-1a2 2 0 0 0 1.56-3.25 8 8 0 1 0-11.12 0A2 2 0 0 0 8 20v1a1 1 0 0 0 1 1z" /> <circle cx="15" cy="12" r="1" /> <circle cx="9" cy="12" r="1" /></symbol>
<symbol id="i-sliders-horizontal" viewBox="0 0 24 24" fill="none" stroke="currentColor" stroke-width="2" stroke-linecap="round" stroke-linejoin="round"><line x1="21" x2="14" y1="4" y2="4" /> <line x1="10" x2="3" y1="4" y2="4" /> <line x1="21" x2="12" y1="12" y2="12" /> <line x1="8" x2="3" y1="12" y2="12" /> <line x1="21" x2="16" y1="20" y2="20" /> <line x1="12" x2="3" y1="20" y2="20" /> <line x1="14" x2="14" y1="2" y2="6" /> <line x1="8" x2="8" y1="10" y2="14" /> <line x1="16" x2="16" y1="18" y2="22" /></symbol>
<symbol id="i-triangle-alert" viewBox="0 0 24 24" fill="none" stroke="currentColor" stroke-width="2" stroke-linecap="round" stroke-linejoin="round"><path d="m21.73 18-8-14a2 2 0 0 0-3.48 0l-8 14A2 2 0 0 0 4 21h16a2 2 0 0 0 1.73-3" /> <path d="M12 9v4" /> <path d="M12 17h.01" /></symbol>
<symbol id="i-tv" viewBox="0 0 24 24" fill="none" stroke="currentColor" stroke-width="2" stroke-linecap="round" stroke-linejoin="round"><rect width="20" height="15" x="2" y="7" rx="2" ry="2" /> <polyline points="17 2 12 7 7 2" /></symbol>
<symbol id="i-venetian-mask" viewBox="0 0 24 24" fill="none" stroke="currentColor" stroke-width="2" stroke-linecap="round" stroke-linejoin="round"><path d="M2 12a5 5 0 0 0 5 5 8 8 0 0 1 5 2 8 8 0 0 1 5-2 5 5 0 0 0 5-5V7h-5a8 8 0 0 0-5 2 8 8 0 0 0-5-2H2Z" /> <path d="M6 11c1.5 0 3 .5 3 2-2 0-3 0-3-2Z" /> <path d="M18 11c-1.5 0-3 .5-3 2 2 0 3 0 3-2Z" /></symbol>
<symbol id="i-wifi-off" viewBox="0 0 24 24" fill="none" stroke="currentColor" stroke-width="2" stroke-linecap="round" stroke-linejoin="round"><path d="M12 20h.01" /> <path d="M8.5 16.429a5 5 0 0 1 7 0" /> <path d="M5 12.859a10 10 0 0 1 5.17-2.69" /> <path d="M19 12.859a10 10 0 0 0-2.007-1.523" /> <path d="M2 8.82a15 15 0 0 1 4.177-2.643" /> <path d="M22 8.82a15 15 0 0 0-11.288-3.764" /> <path d="m2 2 20 20" /></symbol>
<symbol id="i-x" viewBox="0 0 24 24" fill="none" stroke="currentColor" stroke-width="2" stroke-linecap="round" stroke-linejoin="round"><path d="M18 6 6 18" /> <path d="m6 6 12 12" /></symbol>
</svg>
